<svg width="122" height="100" viewBox="0 0 122 100" fill="none" xmlns="http://www.w3.org/2000/svg">
<g clip-path="url(#clip0_109_2)">
<mask id="mask0_109_2" style="mask-type:luminance" maskUnits="userSpaceOnUse" x="0" y="0" width="122" height="100">
<path d="M121.927 0H0V99.8771H121.927V0Z" fill="white"/>
</mask>
<g mask="url(#mask0_109_2)">
<path fill-rule="evenodd" clip-rule="evenodd" d="M72.2054 19.6292C71.7418 11.7775 68.0474 0 58.5736 0C46.7955 0 30.055 18.1296 24.6292 28.4074C23.3612 30.9434 22.5443 33.6013 22.3126 36.3687C22.3126 39.2584 22.8979 41.4529 24.6292 43.7571C31.3231 51.3771 44.8325 53.5716 54.0747 57.0342C51.1851 59.8142 41.943 75.0542 43.2231 78.8581C43.6863 80.1381 44.3693 80.7113 45.2958 80.7113C48.8805 80.7113 55.3428 71.8232 56.6106 70.2016C58.0007 68.0071 62.39 61.0819 60.537 58.3145C59.8418 56.8148 58.9275 55.8884 57.4278 55.0713C60.8905 51.6087 66.316 47.2197 70.5837 45.1471L70.2424 44.2203C65.0482 47.11 60.7686 50.341 56.6106 54.4984C48.5269 50.4629 32.5912 48.8413 26.702 42.1477C25.434 40.6481 24.5073 38.6852 24.5073 36.3687C24.5073 24.5913 45.4177 2.19456 57.3058 2.19456C61.6951 2.19456 65.3895 4.96216 67.5841 12.3505C68.2793 15.24 68.511 17.776 68.6207 19.7389C68.8523 21.7018 68.8523 23.3234 68.8523 24.5913C68.9742 27.0175 69.3155 27.8222 70.474 28.0538C71.3882 28.0538 71.8518 27.1395 72.2054 24.5913C72.2054 23.3234 72.437 21.7018 72.2054 19.6292ZM57.8787 60.2774C57.8787 64.2032 52.453 71.8232 49.917 74.8226C49.3437 75.3955 46.6859 78.5168 45.5277 78.5168C45.4177 78.5168 45.2958 78.4068 45.1861 78.2848C43.7963 75.8587 50.2583 63.2765 55.1112 57.4977C55.1112 57.4977 57.8787 59.3506 57.8787 60.2774ZM64.463 57.6194C64.8166 58.3145 65.6211 58.8874 66.426 58.7777C68.511 58.5461 71.5102 55.1932 73.4732 52.6574C73.4732 53.2303 73.3512 53.9255 73.3512 54.6203C73.2416 56.9245 73.1319 59.8142 73.1319 63.74C71.7418 65.8126 70.5837 67.8974 69.6568 70.0919C68.9742 72.0548 68.2793 74.0177 67.8158 75.9806C66.0844 82.9058 67.3525 99.8771 71.0469 99.8771C71.6199 99.8771 72.3151 99.4139 73.1319 98.2555C76.2411 92.0255 76.5947 67.6658 76.5947 60.509C76.8263 60.2774 77.0457 59.9239 77.2773 59.6923C80.1671 56.2297 83.5202 52.9987 87.5559 50.341L87.0927 49.5361C83.1666 52.0723 79.4722 55.3029 76.5947 58.9971C76.5947 57.2658 76.5947 55.8884 76.5947 54.6203C76.363 50.6945 75.8998 48.9632 75.2046 48.9632C74.6316 48.9632 74.1684 49.5361 73.8148 50.6945C71.9737 52.889 68.2793 57.1561 66.548 57.1561C64.353 57.1561 66.8893 51.7306 67.5841 50.9139C68.389 49.7677 69.4252 48.8413 70.352 48.2681C71.7418 47.3416 76.8263 45.9516 76.0095 44.3423C75.5462 43.4158 74.8633 43.0745 73.9368 43.0745C71.9737 43.0745 69.3155 44.8058 68.2793 45.8419C67.2306 46.7687 66.1944 48.0365 65.2798 49.6458C64.2314 51.6087 63.1949 55.5345 64.463 57.6194ZM69.0839 76.2123C70.0104 72.6277 71.1689 68.9336 73.1319 65.8126C73.1319 72.8597 73.0099 80.0161 72.6686 87.0632C72.6686 87.0632 72.437 96.0732 71.2785 96.0732C71.1689 96.0732 70.9372 95.9513 70.8153 95.7197C68.7426 89.4894 67.9255 82.6742 69.0839 76.2123Z" fill="#D4B297"/>
<path fill-rule="evenodd" clip-rule="evenodd" d="M2.76775 88.0265C3.19449 88.0265 3.62124 88.0997 4.02358 88.2581C4.38938 88.3923 4.73079 88.5994 5.01122 88.8919L5.32821 89.2213L4.56007 89.9526L4.24308 89.6113C4.07236 89.4407 3.8529 89.3187 3.63343 89.2336C3.353 89.1358 3.06037 89.0871 2.76775 89.0871C2.32881 89.0871 1.88987 89.1726 1.52409 89.4161C1.31681 89.5626 1.07296 89.77 1.07296 90.0503C1.07296 90.3184 1.29243 90.5258 1.4997 90.6719C1.85329 90.9158 2.26785 91.0013 2.6824 91.0136C2.70678 91.0136 2.73117 91.0136 2.76775 91.0136C3.45055 91.0136 4.08456 91.1842 4.65762 91.5742C5.16971 91.9278 5.49893 92.4155 5.49893 93.0494C5.49893 93.6958 5.16971 94.1713 4.64543 94.5249C4.08456 94.9149 3.43836 95.0736 2.75555 95.0736C2.07276 95.0736 1.43874 94.9149 0.865682 94.5371C0.353588 94.1955 0.0243855 93.72 0.0243855 93.0984L0 92.6107H1.06077L1.07296 93.0616C1.08515 93.3423 1.31681 93.5616 1.53628 93.7077C1.90206 93.9397 2.32881 94.0248 2.75555 94.0248C3.1823 94.0248 3.62124 93.9397 3.98703 93.6958C4.2065 93.5494 4.43816 93.3423 4.43816 93.0494C4.43816 92.769 4.2065 92.5497 3.98703 92.4032C3.62124 92.1594 3.19449 92.0742 2.76775 92.0742C2.71898 92.0742 2.67021 92.0742 2.62143 92.0742C1.96303 92.0497 1.35339 91.8668 0.80472 91.489C0.317011 91.1355 0.0243855 90.66 0.0243855 90.0503C0.0243855 89.4042 0.341397 88.9287 0.865682 88.5752C1.42655 88.1849 2.07276 88.0265 2.76775 88.0265ZM13.7656 93.6226H9.92489L9.21769 95.0736H8.03501L11.4977 88.0265H12.2049L15.6676 95.0736H14.485L13.7656 93.6226ZM22.5444 92.0255L25.2633 95.0736H23.8612L21.1788 92.0742H19.5083V95.0736H18.4476V88.0387H22.0566C22.6053 88.0387 23.0808 88.2336 23.471 88.6239C23.8612 89.0139 24.0562 89.4894 24.0562 90.0503C24.0562 90.5745 23.8855 91.0378 23.532 91.4158C23.2637 91.7329 22.9345 91.9277 22.5444 92.0255ZM33.5909 93.6226H29.7502L29.0309 95.0736H27.8604L31.3109 88.0265H32.0303L35.4807 95.0736H34.3103L33.5909 93.6226ZM42.7844 92.9887V88.0265H43.8451V95.0736H43.016L39.3216 90.1113V95.0736H38.2728V88.0265H39.1019L42.7844 92.9887ZM49.478 88.0265C49.917 88.0265 50.3438 88.0997 50.7461 88.2581C51.1119 88.3923 51.4533 88.5994 51.7336 88.8919L52.0507 89.2213L51.2703 89.9526L50.9532 89.6113C50.7948 89.4407 50.5755 89.3187 50.3558 89.2336C50.0754 89.1358 49.7828 89.0871 49.478 89.0871C49.0512 89.0871 48.6125 89.1726 48.2466 89.4161C48.0392 89.5626 47.7953 89.77 47.7953 90.0503C47.7953 90.3184 48.015 90.5258 48.2221 90.6719C48.5637 90.9158 48.9902 91.0013 49.3928 91.0136C49.4293 91.0136 49.4538 91.0136 49.478 91.0136C50.1609 91.0136 50.8071 91.1842 51.38 91.5742C51.8923 91.9278 52.2091 92.4155 52.2091 93.0494C52.2091 93.6958 51.8923 94.1713 51.3678 94.5249C50.7948 94.9149 50.1487 95.0736 49.4657 95.0736C48.7954 95.0736 48.1492 94.9149 47.5882 94.5371C47.0762 94.1955 46.7469 93.72 46.7346 93.0984L46.7223 92.6107H47.7711L47.7953 93.0616C47.7953 93.3423 48.0392 93.5616 48.2589 93.7077C48.6124 93.9397 49.0393 94.0248 49.4657 94.0248C49.9048 94.0248 50.3438 93.9397 50.7097 93.6958C50.9168 93.5494 51.1607 93.3423 51.1607 93.0494C51.1607 92.769 50.9168 92.5497 50.7097 92.4032C50.3438 92.1594 49.917 92.0742 49.478 92.0742C49.4415 92.0742 49.3928 92.0742 49.3438 92.0742C48.6857 92.0497 48.0637 91.8668 47.5272 91.489C47.0395 91.1355 46.7346 90.66 46.7346 90.0503C46.7346 89.4042 47.064 88.9287 47.5882 88.5752C48.1492 88.1849 48.7954 88.0265 49.478 88.0265ZM56.1474 91.0136H59.6347V88.0265H60.6954V95.0736H59.6347V92.0742H56.1474V95.0736H55.0989V88.0265H56.1474V91.0136ZM11.8513 89.6968L10.437 92.5619H13.2535L11.8513 89.6968ZM19.5083 89.0871V91.0136H22.0688C22.3249 91.0136 22.5444 90.9281 22.7272 90.7329C22.9101 90.55 23.0077 90.3184 23.0077 90.0503C23.0077 89.7819 22.9101 89.5626 22.7272 89.3674C22.5444 89.1845 22.337 89.0871 22.0688 89.0871H19.5083ZM31.6645 89.6968L30.2623 92.5619H33.079L31.6645 89.6968Z" fill="#D4B297"/>
<path fill-rule="evenodd" clip-rule="evenodd" d="M2.7677 88.1848C2.07272 88.1848 1.47528 88.3555 0.950988 88.709C0.438894 89.0626 0.182847 89.5016 0.182847 90.0503C0.182847 90.5745 0.4267 91.0135 0.902217 91.3548C1.38993 91.6961 1.96298 91.8913 2.63358 91.9155C2.68235 91.9155 2.71893 91.9155 2.7677 91.9155C3.29199 91.9155 3.73092 92.0255 4.07232 92.269C4.42592 92.5129 4.59661 92.769 4.59661 93.0493C4.59661 93.3419 4.42592 93.598 4.07232 93.8297C3.73092 94.0735 3.27979 94.1832 2.75551 94.1832C2.23123 94.1832 1.79229 94.0735 1.45089 93.8419C1.0973 93.6103 0.914412 93.3542 0.914412 93.0616L0.902217 92.769H0.170654L0.182847 93.0861C0.19504 93.6226 0.451088 94.0613 0.963182 94.4029C1.47528 94.7442 2.07272 94.9148 2.75551 94.9148C3.43829 94.9148 4.04794 94.7442 4.56003 94.3906C5.07212 94.0493 5.32817 93.598 5.32817 93.0493C5.32817 92.5129 5.07212 92.0619 4.56003 91.7084C4.04794 91.3548 3.45048 91.1842 2.7677 91.1842C2.75551 91.1842 2.73112 91.1842 2.68235 91.1842C2.17026 91.1597 1.74351 91.0377 1.41431 90.8061C1.07291 90.5745 0.914412 90.3184 0.914412 90.0503C0.914412 89.7697 1.08511 89.5138 1.4387 89.2822C1.78009 89.0506 2.23123 88.9287 2.7677 88.9287C3.09691 88.9287 3.40174 88.9774 3.68217 89.0871C3.97477 89.1968 4.19427 89.3309 4.35276 89.5016L4.56003 89.721L5.09651 89.2213L4.88924 89.0016C4.64539 88.7458 4.34056 88.5506 3.96258 88.4042C3.59681 88.258 3.19445 88.1848 2.7677 88.1848ZM11.5952 88.1848L8.29102 94.9148H9.10793L9.8273 93.4519H13.8753L14.5946 94.9148H15.3994L12.1073 88.1848H11.5952ZM11.8513 89.3309L13.5217 92.7203H10.1809L11.8513 89.3309ZM22.0566 88.1971H18.6061V94.9148H19.3376V91.9155H21.2519L23.9343 94.9148H24.9097L22.2273 91.9155C22.7028 91.8668 23.093 91.6716 23.41 91.318C23.7392 90.9526 23.8977 90.538 23.8977 90.0503C23.8977 89.538 23.7148 89.0993 23.349 88.7335C22.9954 88.38 22.5565 88.1971 22.0566 88.1971ZM19.3376 88.9287H21.4713H22.0688C22.3736 88.9287 22.6296 89.0384 22.8369 89.2577C23.0564 89.4771 23.1661 89.7455 23.1661 90.0503C23.1661 90.3671 23.0564 90.6355 22.8369 90.8548C22.6296 91.0745 22.3736 91.1842 22.0688 91.1842H21.4835H19.3376V88.9287ZM31.4084 88.1848L28.1164 94.9148H28.9333L29.6527 93.4519H33.6883L34.4077 94.9148H35.2249L31.9205 88.1848H31.4084ZM31.6644 89.3309L33.3348 92.7203H30.0063L31.6644 89.3309ZM39.0167 88.1848H38.4315V94.9148H39.1628V89.6235L43.0889 94.9148H43.6744V88.1848H42.9427V93.4761L39.0167 88.1848ZM49.4779 88.1848C48.7831 88.1848 48.1856 88.3555 47.6736 88.709C47.1614 89.0626 46.8933 89.5016 46.8933 90.0503C46.8933 90.5745 47.1372 91.0135 47.6246 91.3548C48.1001 91.6961 48.6734 91.8913 49.3437 91.9155C49.3928 91.9155 49.4415 91.9155 49.4779 91.9155C50.0022 91.9155 50.4412 92.0255 50.7948 92.269C51.1484 92.5129 51.319 92.769 51.319 93.0493C51.319 93.3419 51.1484 93.598 50.7948 93.8297C50.4412 94.0735 50.0022 94.1832 49.4657 94.1832C48.9415 94.1832 48.5147 94.0735 48.1611 93.8419C47.8198 93.6103 47.6369 93.3542 47.6246 93.0616L47.6127 92.769H46.881L46.8933 93.0861C46.9052 93.6226 47.1614 94.0613 47.6736 94.4029C48.1856 94.7442 48.7831 94.9148 49.4657 94.9148C50.1609 94.9148 50.7583 94.7442 51.2703 94.3906C51.7945 94.0493 52.0507 93.598 52.0507 93.0493C52.0507 92.5129 51.7945 92.0619 51.2826 91.7084C50.7706 91.3548 50.1731 91.1842 49.4779 91.1842C49.4657 91.1842 49.4415 91.1842 49.3928 91.1842C48.8805 91.1597 48.4659 91.0377 48.1246 90.8061C47.7953 90.5745 47.6246 90.3184 47.6246 90.0503C47.6246 89.7697 47.8075 89.5138 48.1492 89.2822C48.5027 89.0506 48.9415 88.9287 49.4779 88.9287C49.8073 88.9287 50.1241 88.9774 50.4048 89.0871C50.6851 89.1968 50.9167 89.3309 51.0751 89.5016L51.2826 89.721L51.819 89.2213L51.6116 89.0016C51.3677 88.7458 51.0632 88.5506 50.6851 88.4042C50.307 88.258 49.9047 88.1848 49.4779 88.1848ZM55.2573 88.1848V94.9148H55.989V91.9155H59.793V94.9148H60.5247V88.1848H59.793V91.1842H55.989V88.1848H55.2573Z" fill="#D4B297"/>
<path fill-rule="evenodd" clip-rule="evenodd" d="M86.8853 92.0742H83.9957V91.0136H87.9827L87.995 91.4768C87.995 91.501 87.995 91.5378 87.995 91.5742C87.995 92.5374 87.6534 93.3787 86.9585 94.0613C86.2756 94.7319 85.4465 95.0736 84.4713 95.0736C83.508 95.0736 82.6789 94.7319 81.9837 94.0494C81.3011 93.3542 80.9475 92.5252 80.9475 91.55C80.9475 90.5745 81.3011 89.7455 81.9837 89.0626C82.6789 88.38 83.508 88.0387 84.4713 88.0387C85.3978 88.0387 86.2026 88.3555 86.8853 88.9774L87.2388 89.3187L86.4707 90.0503L86.1536 89.7455C85.6781 89.3065 85.1174 89.0871 84.4713 89.0871C83.7883 89.0871 83.2154 89.331 82.7276 89.8065C82.2521 90.2942 82.0082 90.8671 82.0082 91.55C82.0082 92.2326 82.2521 92.8178 82.7276 93.2932C83.2154 93.781 83.7883 94.0248 84.4713 94.0248C85.0929 94.0248 85.6416 93.8297 86.1049 93.4152C86.5194 93.0494 86.7756 92.5984 86.8853 92.0742ZM90.8845 88.0265H91.933V92.3181C91.9452 92.7936 92.1159 93.1958 92.4575 93.5252C92.7988 93.8665 93.2011 94.0248 93.6766 94.0248C94.1521 94.0248 94.5544 93.8542 94.896 93.5129C95.2251 93.1713 95.3957 92.7568 95.3957 92.2694L95.408 91.5378V88.0387H96.4687V92.2694C96.4687 93.0494 96.1884 93.7078 95.6396 94.2565C95.1032 94.8052 94.4447 95.0736 93.6766 95.0736C92.9085 95.0736 92.2501 94.8174 91.7136 94.281C91.1771 93.7445 90.8968 93.0739 90.8845 92.3058V88.0265ZM100.395 92.0742V95.0736H99.334V88.0387H102.943C103.492 88.0387 103.967 88.2336 104.358 88.6239C104.748 89.0139 104.943 89.4894 104.943 90.0503C104.943 90.5868 104.76 91.0745 104.382 91.4645C104.004 91.8668 103.516 92.0497 102.955 92.0742H100.395ZM111.161 89.0748V95.0736H110.1V89.0748H107.832V88.0265H113.356V89.0748H111.161ZM120.037 93.6226H116.197L115.477 95.0736H114.295L117.757 88.0265H118.464L121.927 95.0736H120.745L120.037 93.6226ZM100.395 89.0871V91.0136H102.955C103.211 91.0136 103.431 90.9281 103.614 90.7329C103.797 90.55 103.894 90.3184 103.894 90.0503C103.894 89.7819 103.797 89.5626 103.614 89.3674C103.431 89.1845 103.211 89.0871 102.955 89.0871H100.395ZM118.111 89.6968L116.709 92.5619H119.525L118.111 89.6968Z" fill="#D4B297"/>
<path fill-rule="evenodd" clip-rule="evenodd" d="M84.4713 88.1971C83.5444 88.1971 82.7641 88.5261 82.1056 89.1722C81.4472 89.8306 81.1182 90.6232 81.1182 91.55C81.1182 92.4764 81.4472 93.269 82.1056 93.9274C82.7641 94.5858 83.5444 94.9148 84.4713 94.9148C85.3978 94.9148 86.1904 94.5977 86.8488 93.9393C87.5072 93.2932 87.8363 92.5009 87.8363 91.5742C87.8363 91.5377 87.8363 91.5009 87.8363 91.4768L87.824 91.1842H84.1541V91.9155H87.0804C86.9949 92.5619 86.7024 93.0984 86.2146 93.5371C85.7149 93.9639 85.1416 94.1832 84.4713 94.1832C83.7519 94.1832 83.1299 93.9274 82.6179 93.4151C82.1056 92.9032 81.8498 92.2813 81.8498 91.55C81.8498 90.8306 82.1056 90.2087 82.6179 89.6968C83.1299 89.1845 83.7519 88.9287 84.4713 88.9287C85.1661 88.9287 85.7636 89.1603 86.2636 89.6358L86.4707 89.8306L87.0072 89.3187L86.7756 89.0993C86.1294 88.5019 85.3613 88.1971 84.4713 88.1971ZM91.0429 88.1848V92.3058C91.0552 93.0374 91.3236 93.659 91.8233 94.159C92.3356 94.671 92.945 94.9148 93.6766 94.9148C94.396 94.9148 95.018 94.6587 95.53 94.1468C96.0419 93.6226 96.2981 93.0006 96.2981 92.2813V88.1971H95.5664V91.5377L95.5545 92.2813C95.5545 92.8055 95.3716 93.2568 95.0057 93.6226C94.6399 94.0003 94.1889 94.1832 93.6766 94.1832C93.1524 94.1832 92.7133 94.0003 92.3475 93.6468C91.982 93.2809 91.7868 92.8422 91.7746 92.318V92.3058V88.1848H91.0429ZM102.943 88.1971H99.4928V94.9148H100.224V91.9155H102.955C103.492 91.8913 103.931 91.7084 104.272 91.3548C104.614 90.989 104.784 90.5622 104.784 90.0503C104.784 89.538 104.601 89.0993 104.248 88.7335C103.882 88.38 103.455 88.1971 102.943 88.1971ZM100.224 88.9287H102.358H102.955C103.26 88.9287 103.516 89.0384 103.723 89.2577C103.943 89.4771 104.053 89.7455 104.053 90.0503C104.053 90.3671 103.943 90.6355 103.723 90.8548C103.516 91.0745 103.26 91.1842 102.955 91.1842H102.37H100.224V88.9287ZM107.991 88.1848V88.9164H110.259V94.9148H110.99V88.9164H113.185V88.1848H107.991ZM117.855 88.1848L114.551 94.9148H115.368L116.087 93.4519H120.135L120.854 94.9148H121.671L118.367 88.1848H117.855ZM118.111 89.3309L119.781 92.7203H116.441L118.111 89.3309Z" fill="#D4B297"/>
</g>
</g>
<defs>
<clipPath id="clip0_109_2">
<rect width="121.942" height="100" fill="white"/>
</clipPath>
</defs>
</svg>
